<?xml version="1.0" encoding="utf-8"?>
<!-- Generator: Adobe Illustrator 26.0.1, SVG Export Plug-In . SVG Version: 6.00 Build 0)  -->
<svg version="1.1" id="Layer_1" xmlns="http://www.w3.org/2000/svg" xmlns:xlink="http://www.w3.org/1999/xlink" x="0px" y="0px"
	 viewBox="0 0 514 514" style="enable-background:new 0 0 514 514;" xml:space="preserve">
<style type="text/css">
	.st0{fill:#A53B23;stroke:#000000;stroke-miterlimit:10;}
	.st1{fill:#BA6447;stroke:#000000;stroke-miterlimit:10;}
	.st2{fill:#FFFFFF;}
	.st3{fill:#B04E32;stroke:#000000;stroke-miterlimit:10;}
	.st4{fill:#A63923;stroke:#000000;stroke-miterlimit:10;}
</style>
<rect class="st0" width="514" height="514"/>
<g>
	<g>
		<path class="st1" d="M285.26,434.17c-0.08-0.23-0.05-0.44,0.08-0.64c1.59-0.86,3.16-1.89,5.06-0.83c0.74,0.31,1.48,0.62,2.22,0.93
			"/>
		<path class="st2" d="M195.02,425.32c-52.91-17.46-85.5-53.66-97.13-108.11c-4.37-20.48,0.46-40.24,8.24-59.36
			c6.58-16.17,15.13-31.39,22.34-47.25c6.21-13.64,11.58-27.54,13.15-42.62c0.08-0.81-0.35-2.28,1.21-2.09
			c0.54,0.07,0.95,1.13,1.42,1.73c1.35,1.17,1.54,3.1,2.81,4.33c5.95,9.73,7.82,20.69,9.61,31.68c1.01,6.22,0.96,12.53,1.48,19.04
			c-0.15,0.36,1.12,0.13,0.45,0.1c-0.17-0.01-0.22-0.18-0.05-0.47c3.28-5.51,6.79-10.85,12.03-14.77
			c25.12-33.17,46.57-68.21,55.26-109.64c2.85-13.57,3.45-27.29,1.54-41.3c3.9,0.28,6.55,2.89,9.86,3.68
			c1.75,0.05,3.02,0.99,4.15,2.22c0.19,0.23,0.42,0.3,0.7,0.2c10.77,4.49,19.68,11.73,28.09,19.55
			c24.79,23.06,41.43,51.38,53.21,82.85c2.85,7.62,4.79,15.53,7.8,23.57c4.09-3.38,6.23-7.54,7.96-12.01
			c0.83-2.14,1.1-4.58,3.02-6.2c3.34-12.55,2.16-26.93-3.93-44.43c6.53,3.97,10.65,9.3,15.58,13.64c4.02,4.14,8.78,7.64,11.43,12.99
			c17.16,21.55,31.94,44.55,41.6,70.49c12.9,34.64,15.55,69.53,1.48,104.58c-8.06,20.08-20.42,37.32-36,52.15
			c-23.93,22.78-50.48,41.63-81.93,52.79c-1.69,0.25-3.25,1.29-5.06,0.83c11.54-10.23,23.67-19.81,34.65-30.68
			c10.54-10.44,20.31-21.5,29.29-33.35c25.89-34.18,22.99-87.2-9.94-120.05c-45.7-45.59-125.97-41.35-165.66,9.26
			c-25.57,32.61-24.73,75.8-3.96,108.76c13.01,20.65,30.41,37.37,48.77,53.14c5.55,4.77,11.34,9.25,17.02,13.87"/>
		<path class="st3" d="M365.36,151.32c-0.03,0.45-0.07,0.9-0.11,1.36"/>
		<path class="st3" d="M353.83,139.69"/>
		<path class="st4" d="M237.25,60.28"/>
		<path class="st4" d="M241.39,62.5"/>
		<path class="st2" d="M275.56,364.27c6.94-7.62,13.83-15.29,20.85-22.84c3.35-3.61,7.59-5.51,12.57-4.6
			c5.27,0.96,9.15,3.88,10.76,9.21c1.59,5.31,0.06,9.89-3.77,13.66c-7.94,7.83-15.99,15.55-24,23.31
			c-6.58,6.37-13.13,12.76-19.75,19.08c-7.07,6.74-13.99,6.81-21.04,0.05c-14.42-13.82-28.78-27.71-43.1-41.63
			c-6.14-5.97-6.64-14.05-1.4-19.51c5.46-5.7,13.94-5.85,19.98,0.37c7.07,7.29,13.59,15.11,20.51,22.89
			c3.24-3.28,2.54-5.18,2.55-6.83c0.05-28.63,0.12-57.26-0.06-85.89c-0.02-4.02,0.79-5.68,5.11-5.33c4.63,0.38,9.33,0.33,13.97,0.01
			c3.66-0.26,4.74,0.73,4.71,4.58c-0.18,28.96-0.1,57.93-0.1,86.89c0,1.63,0,3.27,0,4.9C274.09,363.15,274.83,363.71,275.56,364.27z
			"/>
	</g>
</g>
</svg>
